<svg viewBox="0 0 200 200" xmlns="http://www.w3.org/2000/svg">
  <!-- Background circle with subtle gradient -->
  <defs>
    <!-- Main aura gradient -->
    <radialGradient id="auraGradient" cx="50%" cy="50%" r="50%">
      <stop offset="0%" style="stop-color:#667eea;stop-opacity:0.1"/>
      <stop offset="40%" style="stop-color:#764ba2;stop-opacity:0.2"/>
      <stop offset="100%" style="stop-color:#f093fb;stop-opacity:0.3"/>
    </radialGradient>
    
    <!-- Inner glow gradient -->
    <radialGradient id="innerGlow" cx="50%" cy="50%" r="50%">
      <stop offset="0%" style="stop-color:#ffffff;stop-opacity:0.8"/>
      <stop offset="60%" style="stop-color:#667eea;stop-opacity:0.4"/>
      <stop offset="100%" style="stop-color:#764ba2;stop-opacity:0.1"/>
    </radialGradient>
    
    <!-- Head gradient -->
    <linearGradient id="headGradient" x1="0%" y1="0%" x2="100%" y2="100%">
      <stop offset="0%" style="stop-color:#667eea"/>
      <stop offset="100%" style="stop-color:#764ba2"/>
    </linearGradient>
    
    <!-- Aura rings gradient -->
    <linearGradient id="ringGradient" x1="0%" y1="0%" x2="100%" y2="100%">
      <stop offset="0%" style="stop-color:#f093fb;stop-opacity:0.6"/>
      <stop offset="50%" style="stop-color:#667eea;stop-opacity:0.4"/>
      <stop offset="100%" style="stop-color:#764ba2;stop-opacity:0.3"/>
    </linearGradient>
    
    <!-- Subtle shadow -->
    <filter id="softShadow">
      <feDropShadow dx="0" dy="2" stdDeviation="4" flood-color="#000" flood-opacity="0.1"/>
    </filter>
    
    <!-- Glow effect -->
    <filter id="glow">
      <feGaussianBlur stdDeviation="3" result="coloredBlur"/>
      <feMerge> 
        <feMergeNode in="coloredBlur"/>
        <feMergeNode in="SourceGraphic"/>
      </feMerge>
    </filter>
  </defs>
  
  <!-- Outer aura background -->
  <circle cx="100" cy="100" r="95" fill="url(#auraGradient)" opacity="0.3"/>
  
  <!-- Aura rings (energy waves) -->
  <circle cx="100" cy="100" r="75" fill="none" stroke="url(#ringGradient)" stroke-width="1" opacity="0.4"/>
  <circle cx="100" cy="100" r="65" fill="none" stroke="url(#ringGradient)" stroke-width="1" opacity="0.5"/>
  <circle cx="100" cy="100" r="55" fill="none" stroke="url(#ringGradient)" stroke-width="1" opacity="0.6"/>
  
  <!-- Inner glow circle -->
  <circle cx="100" cy="100" r="45" fill="url(#innerGlow)" opacity="0.6"/>
  
  <!-- Main head silhouette -->
  <path d="M 100 60 
           C 85 60, 75 70, 75 85
           C 75 95, 78 105, 85 110
           L 85 125
           C 85 135, 90 140, 100 140
           C 110 140, 115 135, 115 125
           L 115 110
           C 122 105, 125 95, 125 85
           C 125 70, 115 60, 100 60 Z" 
        fill="url(#headGradient)" 
        filter="url(#softShadow)"/>
  
  <!-- Detailed human brain in emoji style -->
  <!-- Main brain shape -->
  <path d="M 78 85 
           C 75 78, 78 70, 85 68
           C 88 65, 92 65, 95 67
           C 98 65, 102 65, 105 67
           C 108 65, 112 65, 115 68
           C 122 70, 125 78, 122 85
           C 125 88, 125 92, 122 95
           C 125 98, 125 102, 122 105
           C 125 108, 122 112, 115 115
           C 112 118, 108 118, 105 116
           C 102 118, 98 118, 95 116
           C 92 118, 88 118, 85 115
           C 78 112, 75 108, 78 105
           C 75 102, 75 98, 78 95
           C 75 92, 75 88, 78 85 Z" 
        fill="rgba(255,182,193,0.9)" 
        stroke="rgba(255,105,180,0.3)" 
        stroke-width="1"/>
  
  <!-- Brain wrinkles/folds (gyri and sulci) -->
  <path d="M 85 75 C 90 72, 95 72, 100 75 C 105 72, 110 72, 115 75" 
        fill="none" 
        stroke="rgba(255,105,180,0.6)" 
        stroke-width="1.5" 
        stroke-linecap="round"/>
  <path d="M 80 85 C 90 82, 100 82, 110 85 C 115 82, 120 85, 120 85" 
        fill="none" 
        stroke="rgba(255,105,180,0.5)" 
        stroke-width="1.2" 
        stroke-linecap="round"/>
  <path d="M 82 95 C 92 92, 100 92, 108 95 C 115 92, 118 95, 118 95" 
        fill="none" 
        stroke="rgba(255,105,180,0.5)" 
        stroke-width="1.2" 
        stroke-linecap="round"/>
  <path d="M 85 105 C 95 102, 105 102, 115 105" 
        fill="none" 
        stroke="rgba(255,105,180,0.4)" 
        stroke-width="1" 
        stroke-linecap="round"/>
  
  <!-- Frontal lobe details -->
  <path d="M 88 78 C 92 76, 96 76, 100 78" 
        fill="none" 
        stroke="rgba(255,105,180,0.4)" 
        stroke-width="0.8" 
        stroke-linecap="round"/>
  <path d="M 100 78 C 104 76, 108 76, 112 78" 
        fill="none" 
        stroke="rgba(255,105,180,0.4)" 
        stroke-width="0.8" 
        stroke-linecap="round"/>
  
  <!-- Temporal lobe curves -->
  <path d="M 82 88 C 85 90, 88 92, 85 95" 
        fill="none" 
        stroke="rgba(255,105,180,0.4)" 
        stroke-width="0.8" 
        stroke-linecap="round"/>
  <path d="M 118 88 C 115 90, 112 92, 115 95" 
        fill="none" 
        stroke="rgba(255,105,180,0.4)" 
        stroke-width="0.8" 
        stroke-linecap="round"/>
  
  <!-- Central sulcus (hemisphere division) -->
  <path d="M 100 70 C 100 85, 100 100, 100 112" 
        fill="none" 
        stroke="rgba(255,105,180,0.3)" 
        stroke-width="0.8" 
        stroke-linecap="round"/>
  
  <!-- Brain stem -->
  <path d="M 98 115 C 100 118, 102 118, 102 115" 
        fill="rgba(255,182,193,0.8)" 
        stroke="rgba(255,105,180,0.4)" 
        stroke-width="0.5"/>
  
  <!-- Cerebellum hint -->
  <circle cx="95" cy="110" r="3" fill="rgba(255,182,193,0.7)" stroke="rgba(255,105,180,0.3)" stroke-width="0.5"/>
  <circle cx="105" cy="110" r="3" fill="rgba(255,182,193,0.7)" stroke="rgba(255,105,180,0.3)" stroke-width="0.5"/>
  
  <!-- Gentle energy particles -->
  <circle cx="130" cy="80" r="2" fill="#f093fb" opacity="0.6" filter="url(#glow)">
    <animate attributeName="opacity" values="0.6;0.2;0.6" dur="3s" repeatCount="indefinite"/>
  </circle>
  <circle cx="70" cy="90" r="1.5" fill="#667eea" opacity="0.5" filter="url(#glow)">
    <animate attributeName="opacity" values="0.5;0.1;0.5" dur="2.5s" repeatCount="indefinite"/>
  </circle>
  <circle cx="135" cy="120" r="1" fill="#764ba2" opacity="0.4" filter="url(#glow)">
    <animate attributeName="opacity" values="0.4;0.1;0.4" dur="2s" repeatCount="indefinite"/>
  </circle>
  <circle cx="65" cy="110" r="1" fill="#f093fb" opacity="0.3" filter="url(#glow)">
    <animate attributeName="opacity" values="0.3;0.1;0.3" dur="4s" repeatCount="indefinite"/>
  </circle>
  
  <!-- Subtle pulse animation on main head -->
  <circle cx="100" cy="100" r="45" fill="none" stroke="rgba(255,255,255,0.1)" stroke-width="1">
    <animate attributeName="r" values="45;48;45" dur="4s" repeatCount="indefinite"/>
    <animate attributeName="opacity" values="0.1;0.3;0.1" dur="4s" repeatCount="indefinite"/>
  </circle>
</svg>